<mxfile host="app.diagrams.net" agent="Mozilla/5.0 (Windows NT 10.0; Win64; x64; rv:132.0) Gecko/20100101 Firefox/132.0" version="24.8.8">
  <diagram name="Page-1" id="msnvFMOTyviCE57me9n1">
    <mxGraphModel dx="3000" dy="1594" grid="1" gridSize="10" guides="1" tooltips="1" connect="1" arrows="1" fold="1" page="1" pageScale="1" pageWidth="850" pageHeight="1100" math="0" shadow="0">
      <root>
        <mxCell id="0" />
        <mxCell id="1" parent="0" />
        <mxCell id="2r1wk7_mXnwwI7fHC9Ym-2" value="&lt;font style=&quot;font-size: 23px;&quot;&gt;Sending Messages&lt;/font&gt;" style="text;html=1;align=center;verticalAlign=middle;whiteSpace=wrap;rounded=0;" vertex="1" parent="1">
          <mxGeometry x="580" y="10" width="260" height="30" as="geometry" />
        </mxCell>
        <mxCell id="2r1wk7_mXnwwI7fHC9Ym-3" value="When enter is pressed or this button is pressed" style="rounded=1;whiteSpace=wrap;html=1;" vertex="1" parent="1">
          <mxGeometry x="40" y="40" width="120" height="60" as="geometry" />
        </mxCell>
        <mxCell id="2r1wk7_mXnwwI7fHC9Ym-4" value="" style="endArrow=classic;html=1;rounded=0;" edge="1" parent="1">
          <mxGeometry width="50" height="50" relative="1" as="geometry">
            <mxPoint x="180" y="70" as="sourcePoint" />
            <mxPoint x="280" y="70" as="targetPoint" />
          </mxGeometry>
        </mxCell>
        <mxCell id="2r1wk7_mXnwwI7fHC9Ym-5" value="Looks like this" style="text;html=1;align=center;verticalAlign=middle;whiteSpace=wrap;rounded=0;" vertex="1" parent="1">
          <mxGeometry x="190" y="40" width="60" height="30" as="geometry" />
        </mxCell>
        <mxCell id="2r1wk7_mXnwwI7fHC9Ym-6" value="" style="shape=image;verticalLabelPosition=bottom;labelBackgroundColor=default;verticalAlign=top;aspect=fixed;imageAspect=0;image=data:image/png,iVBORw0KGgoAAAANSUhEUgAABcsAAABcCAYAAACxz+2KAAAgAElEQVR4Xu3dB3QU5foG8Ce9kQRCQgJSBUHpghRBFKUJ3GsvKOoVRBFBRBSBa0GUK4pXsYBYEP6Xa0FFRaoIXEEU6UiJCEgvCaSQkN7/3ztkwuxkNzu72YQEn++cPcFkdub7fjPgOc++eT+vIjVQPI4ePQofHx/4+fnB19dXe8l/y8vb2xteXl7aVxnyZ+NX/Rz8SgEKUIACFKAABShAAQpQgAIUoAAFKEABClCAAhSobgJeEpbrebmE5RKQS1guATnD8up2OzlfClCAAhSgAAUoQAEKUIACFKAABShAAQpQgAIUcEfAq7CwUKssl8B8y5Yt7pyD76EABShAAQpQgAIUoAAFKEABClCAAhSgAAUoQAEKVGsBLSyXoFxeW7durdaL4eQpQAEKUIACFKAABShAAQpQgAIUoAAFKEABCrgiEBgbi5AVKxCwezd8UlJQGBSEInkFBqJQXmFhyG3WDHmNGyNXvfLr1XPl9Dy2Ggl4FRQUaGG5Cs2xffv2ajR1TpUCFKAABShAAQpQgAIUoAAFKEABClCAAhSggHsCvgkJqDlnDoI2bnTpBAU1ayLn8suR27Ilstu2RV7Dhi69nwdXXQGv/Pz8IgnK5bVjx46qO1POjAIUoAAFKEABClCAAhSgAAUoQAEKUIACFKCABwR84+JQd8wYIC+v3GfLbdoU2Z06IUsF57kqROeovgJeubm5WliuKsyxW/2qAQcFKEABClCAAhSgAAUoQAEKUIACFKAABShAgYtZoJaqKK+xZInHl5hfpw6yunZFdrt22gve3h6/Bk9YcQJeOTk5RRKUqwpz7Nmzp+KuxDNTgAIUoAAFKEABClCAAhSgAAUoQAEKUIACFLjAAv4HDyL66acrfBbS+zyre3et4jynfXsU1qhR4dfkBcon4JWdnV0kQXme+pWDffv2le9sfDcFKEABClCAAhSgAAUoQAEKUIACFKAABShAgSosEP7ZZwhbsMBmhgVRUUh58EFkXn01VHXx+VduLvxOnID/4cPwP3AA/r//Du+MDLdWl9WlC7I6dEBmt24oCglx6xx8U8UKeGVlZRVJUK7aseCAuuEcFKAABShAAQpQgAIUoAAFKEABClCAAhSgAAUuVoH6998PL1PgfebRR5Het6+lJfsdO4YAFZoHbduGwM2bLb3HeFCRas2SceONyLj+eoQuWgSfpCRkdeyIjD59WH3usqZn3+CVmZmpheWqHQsOHTrk2bPzbBSgAAUoQAEKUIACFKAABShAAQpQgAIUoAAFqohAgGpDXefZZ21mUxARgZOzZ7s1Q5/UVATs2IHA335D8Lp18FLtrt0d0u88adw4yIahHBdGQH2IklESlh9Wv07AQQEKUIACFKAABShAAQpQgAIUoAAFKEABClDgYhQI/fZb1Pzvf22WltG7N5Ife6z8y1WtrgO3b0fQzp0I+vVX+CQnu3VOV6rc3boA3+RQQAvLpQWLVJYfOXKEVBSgAAUoQAEKUIACFKAABShAAQpQgAIUoAAFLkqBqBdeQODu3TZrSx49Ghk9e3p8vdKqJVCCc9Wqxc/Fjh5nBw1C6l13eXxOPGHZAgzL+YRQgAIUoAAFKEABClCAAhSgAAUoQAEKUIACF72Ab1wc6o4cWWqdx775psLX7qeKlKXavMaqVZYrztNVX/MzjzxS4XPjBc4LlITl2dnZOHr0KG0oQAEKUIACFKAABShAAQpQgAIUoAAFKEABClx0AjWWL0etjz6yWVd2mzZImDy5Utca8r//afPwUp0+nI2sLl0gbVkKwsOdHcqfe0CAYbkHEHkKClCAAhSgAAUoQAEKUIACFKAABShAAQpQoGoLRE+cCP+9e20mmTJ0KNL+9rdKn7hvfDzqTJoEn4QEp9fOadUKiePHo7BGDafH8oDyCTAsL58f300BClCAAhSgAAUoQAEKUIACFKAABShAAQpUcYHA2FhEPf98qVke+/JLwNf3gsw+bOFChM+bZ+naWVddhSQVmBf5+Fg6nge5J8Cw3D03vosCFKAABShAAQpQgAIUoAAFKEABClCAAhSoJgK1Zs1CjZUrbWab2bUrkp555oKuIGbMGPgVt8YuDA1F8sMPI/LNN+3OKbNHDyQ9+eQFne/FfnGG5Rf7Heb6KEABClCAAhSgAAUoQAEKUIACFKAABSjwFxbwOXMG9R56qJSAtDaRnuAXdBQWImzRIm0KGT17oqBmTQTu2oXar70G78zMUlPL6NMHySNGXNApX8wXZ1h+Md9dro0CFKAABShAAQpQgAIUoAAFKEABClCAAn9xgdAlS1Bzzhwbhfy6dRE3c2aVlQnYuRN1XnzR7vzSbroJKQ8+WGXnXp0nVqlheVFRUXW24twpQAEKUIACFKAABShAAQpQgAIUoAAFKECBChbw8vLy6BWMrU70E6fcfz/Sbr3Vo9fx9MkCN29G1NSpdk+bPmAAzgwb5ulL/uXPV+FheVkBOcPzv/zzRwAKUIACFKAABShAAQpQgAIUoAAFKECBv7hAWeF4eYNz3xMnUPfxx0sJx6ke5vnR0VVePvjnn1HbUQ/za65B8qhRKPL3r/LrqC4TrLCw3BiER0VFITIyEiEhIfDhjq3V5dngPClAAQpQgAIUoAAFKEABClCAAhSgAAUoUGkCBQUFyMjIQGJiIk6fPg1jUO5uaB60cSMiVf9v48jq3BmJEyZU2rrKe6GQVasQ8d57dk+T07Ilzjz6KPLq1y/vZfh+JVAhYbkelMtDfNlll6FWrVrEpgAFKEABClCAAhSgAAUoQAEKUIACFKAABShgSeCM2pRz3759kJxRD8rdCczDFixA+Gef2Vzz7F13IXXQIEvzqCoH1Vi2DLVmz7Y7nYLwcCQ/8QSy27evKtOttvPwaFiuh+T61xYtWjAor7aPBidOAQpQgAIUoAAFKEABClCAAhSgAAUoQIELJyCB+R9//FEqLHclNK/9xhsI/uUXm0Ukjh2LLNXCpLqN4J9+Qu233nI47cRnnkFW167VbVlVar4eD8slKJdXnTp10LRp0yq1WE6GAhSgAAUoQAEKUIACFKAABShAAQpQgAIUqD4Cf/75Z0lLFgnJ9ZfVFdRVLUp8VUsX44hXgXNew4ZWT2H5uLL2Z3Ql4C/rgkFbt6L2v/8Nr5wcu4clvPwyslu1sjznij6wMkw8uQaPheX6wgsLC7WwvJW6KeHqVwA4KEABClCAAhSgAAUoQAEKUIACFKAABShAAQq4I5Camopdu3bB29tbC8rlqwwr4bOPqkyv99BDtpf188OxL75wZyol7ykrAHb1xFbWYT6n38GDiFAblPofOFDqctKSJWHSJOQ1buzqVMp1/IU2KdfkDW/2SFhubL8iYbm8rr76am7m6am7xPNQgAIUoAAFKEABClCAAhSgAAUoQAEKUOAvKCCbfv6i2qhISK6/rPYw9zt6FDFjxtio5bRujdMvveSWpDkQDgwMRGhoKEJCQhAUFISAgAD4+vqWZKIy9/z8fOSoKvCsrCxt89K0tDTtz+aQ3NXQ3Ds9HbU+/BDBP/9cai2ZvXohaeRIt9bo6puqkomrc7d3vMfCcr39igTl8iBce+21npgfz0EBClCAAhSgAAUoQAEKUIACFKAABShAAQr8hQV+/PFHLYCWl15hbqUdS40VK1Drgw9s5NL+9jekDB1qWdNeGBwZGYmIiAgtIHdnSFienJyMxMTE8gXnqrtH1KuvInDz5lLTiH/nHeTVr+/O9Jy+p0qbOJ192Qd4NCzXg3IJy3v27FnOqfHtFKAABShAAQpQgAIUoAAFKEABClCAAhSgQFUTkGrpQ4cOYbMKaWNjY5GQkABplxIWFoZGjRrhiiuuQMeOHdFQ9QXX26aUZw2rVq0qqdg2B+Zlnbfm3LkIXbzY5pAzDz+M9P79LU3H2E1DKsjr1q2rheSeHBKax8XFaRXnMqxWzetz8D57FpGvvIKAfftsppX6j3/g7M03e3Kq2rmqg0l5Fl3usNzYq1wPy+UvzA033FCeefG9FKAABShAAQpQgAIUoAAFKEABClCAAhSgQBUSkHYiX331FZYtW4bc3FxLM7v//vsxcOBALex2d6xQFeJ+qte43uJEb8ci5yurfUmU2uwycPt2m8smvPACstu3L3MqxkDY399fC/2lmrwih1SZHzlyBHl5edplXAnNa3z/vdaSxThyLrsMp197zWNTrm4m7i7cI2G53oJFKsrlJTe1d+/e7s6J76MABShAAQpQgAIUoAAFKEABClCAAhSgAAWqkMB2FTpPnz4dmZmZJbOSELlTp06oU6eOFiZLT+6kpCQcUBtPbtq0qSRQl8B5woQJaNu2rVsrknBeziGBud6ORW/DUlZYXm/YMPioym3jiFMbY+ZHR9udh7G9iPxZ1iWV8nLNyhiSq0pgfurUKS0sN66trHX6qMr+esOHl5risS+/hPqEoVxTr64m7i7aY2G5sQWLfLLUt29fd+fE91HgIhY4jDXzfsLR8La46eb2qHkRr5RLowAFKEABClCAAhSgAAUoQAEKUODiEFisWpn85z//0RYjoa3sVXjLLbegQYMGDheYnZ2NdevW4UsV2J45c0Y7bqjqFT5gwACXUZYsWaKF5fKy17vc3gl9UlJQz9SbvEhtyHn8s8/sXt9YOS0HNGnSBNEOQnWXF+DiGyQsP3jwYKnq8rIC80vuuw/ehg8y5JKyVlmzu6O6m7izbo+H5dKCRcLyfv36nZ/P4TWY99NRC/NriGsf6InGFo7kIRSongLbMPeZ+dgT0RNPThiAutVzEZw1BShAAQpQgAIUoAAFKEABClCAAn8RgaVLl2Ku6v0tQ3p2T5w4EfXq1bO8eskKP//8c3z33Xfaex544AHcdNNNlt8vB0pYr4flxlYsZW3yGfD776jz3HM218lp2RKnp0wpdW1jKCznbNGiBWrWvLAljikq7P/jjz+0HuHGdToKzOsNGQIf1TfeOE588gkKg4NdstYPvhhM3Fm4x8NyacEiYfmNN954fj7b5uKZ+XsszO8KDJo2BB0sHMlDKFA9BRiWV8/7xllTgAIUoAAFKEABClCAAhSgAAX+egLbtm3DK2rzSBmXqR7Y//znPyEbXbozli9fjo8//lh763MqxG7vpG+48RqLFi0qCcv1VizSt7yssDzkf/9DxIwZNlNN79MHZ0aMsPmeORSWzUllo9KqMM6qzTt/V6G/lcDcXsuZE+q3AQrduF8Xi4k799BjYbner1yvLLcJy/MycCbd0PT/9I94/+MNOFOrKx569HrUKZm5P2rUCoGfOyvheyhQLQQYlleL28RJUoACFKAABShAAQpQgAIUoAAF/uICUgw7XPXBTktL0za4lNA8sBwtPYTzhx9+wIdqI0qpEv+///s/7auVIVXpAQEB2vF6Zbm0YykrLA//9FOEff21zelTHnwQaYaqdmMoLH+WoPxCV5SbPaTCPDY2FuYPB8wV5nUffRS+p0/bvP3knDkocLFCviJMbr75ZsgHHvIbBfpvGFi5746OsWrizjXKFZYb8Yybe0p1uU1Ybp5Z3DK8On0NktmKwp17xvdUawGG5dX69nHyFKAABShAAQpQgAIUoAAFKECBv4jAt99+i09V4CwB+XvvveexausPPvgAK1euxB133IFBgwZZ0tTDcqkqt7fJp72TRE6bhqANG2x+lKhayGSpDUllmEPhSy+99IL1KHeGEB8fr22aWlZgXnfkSPjGxdmG5bNnoyAiwtnpS35eUSaeDstlwlZMLC/ccGCFhOXyyVP//v0dz4dhuTv3iu+5KAQYll8Ut5GLoAAFKEABClCAAhSgAAUoQAEKXMQC0jli2LBhSE9Px31q40jZzFNGYWEhvvrqK601iFR5t2nTRiuYNVeIy+aUn6nNJaX6W/p/9+7duyRsl80+R6hWKHovcwm/nQ0Jy/We5VbDcnvhcfzbbyNPbUpqDoXr1KmDpk2bOpvGBf35n3/+Cdn401FgHjN6NPyOH7eZY5z6YCI/KsrSvCvSpCLCclmUMxNLCzcdVIXC8hQc3LoPiQX+iGnZHg1r2FlO1nHs2nUSWUH11F/G+ghK/hOb/kxGRLPOaBaRh+Q/t2HD1r1IRCSatGmHq1pcgiAfxyx58b9j7a9bcDJNHRNaD22v7IQ2jcNRxlvUgW7Ms3gKBVknsPeXTdiiXTAAkS06omuHZogw/5ugrzOiGTo3K/3pT/Kfm/BnchDqqX+Q6gedO3nW8V1QNMXfE4tYxB4uRLPeHRxuIml8T93cw9jyy0bsTcxBQGQLdOl+FRqHn5PIU87bNmzVfobQxuh23dXK2/E/ZNZdZZ6/Yu36w0hDKOq1vRKd2jRG8WWL1awcc+5QmWfstl3YqXxD67VFmw6t1DzzcXzXLpxE8TNjehy0e7JlB3YdSgQim6BNu6vQ4pIgpGrGEWjWWd0f8yNUkIrDW37Bxr2JUFrqbW3QoWtLxDj/t12dyRiW90Pw4S34ZaN6ZnPkeeiC7leZ12+4uNXr2vy9KEDWib3YtScFod274Yri50XOWpB6/p6rm67+znRA15YxbIPkzr+kfA8FKEABClCAAhSgAAUoQAEKUOAiEti0aROmqcpsaX0im3vqYfgc1dZj2bJlNiuVimxp0SLtUWSsX78eb731lhas60N6gL/22muIKg5uP/roI6xYscJy73JXw3JvFfJfojYSNY/jCxagSPU6l2BYf8napH+6BPv2hnwg0LhxYzz++OPo27fvBbvL0tVj69atkI4exsBcb8cS8+ST8DtyxGZ+ceo3AvJjYizN2RUTSyc0HFRRYbkzE1fnKcdXobAciFv2KqavSYZ/uwcweXDrUqH1kYVTMHP9WcT0HY+xvWur3PHcxqHNe9+CovWLsD/z/F9CWZx3cCP0HvIIejcypZgFCVg/ZyYW7c+E7TuAwAY9cf+QAbjMXlhfLOzyPFGA4z++j9krjsA0RcAnAh0HjcAd7QwhvV55f8UgTBtServTbXOfwfw9Eej55AQMqHtuUufmBPR8+G9I+/pTbE0uUN+NQq+nxqFftP1HQ39Pp551EftTrO3cvIPR6q4n0SvhY8xcHa9WYByBaND/ETx2fX3be+SSawEOfPsqPvo11eYeeAd3xtAX70Bz7XJWjpHDUrFjwSzM35psmqcPIjr2QtNDP2AzeuLJCQMMHxzk4ciqDzF3lfmeeCO4UT90DFiOdftKbzibvn8hPpyzHvG2IOphC0er2x/BfZ2inHzYooflndC30T6s2m5efyvc9fQ/0MH0/Ll03eK/F1fcORqNN83GiiPynHuj1eBX8Y924pqO/Qs/xJz15vsqy2iF2x+5D52iyv7IyJ1/bPgeClCAAhSgAAUoQAEKUIACFKAABaqHwLvvvou1a9eiS5cuGDdunDbpnJwcDB48WPtz586dUb9+fSxcuFALxWXjzw4dzmVYI1U7EKmAlhBdQujFixdrAe/dd9+NO++8Uztm+/bt+Ne//oVrr70Wo1VFtLPhalgeoCrf66hNRI0jR21QeloF9noFtcxb/iwbl+ohvr15dO/eHfv27dN+JNXnUhUv7WPkg4TKHgkJCfjjjz+0YF9CcgnNZcifo9V98letWowjTt3H/EsucTpNV02cntB0QEWF5XKZskxcnadmmZGRUSRtU7Kzs3H06FGXzmGElAdM0nx5+N1uw5KlgsR/zcee/EvQf9wTuF7l4SUjawM+mPwNDvi2wwOTB6O1ZHnFoaB2jAqd2/S/A33b1IZ/bhJ2/bAAy3ep8NQ7Cj1HjcWA+nr4l67eNk2FzdkqGO+GW2/ug9YNA5GfeAibl36BZbGpKmPuiVFjB6DkLWYVF+cZt+J1vL06AYXGOapa6sNrF+O7DRLWBqogc6IKMovLft0Oy9NVH6l85Ho3QNde16ND69qo4ReNCAfBvx76q4gU4a0G4O4b26C2fxr2LfkMCzU7b3ir++oVcxXuuqMPGofmImnrInyyar+acxi6DJ+I25u66ZryI95+ZTkSmt+OcUO6ILwwGbErP8UXO9U/OnqobeUYZGHHf6bi09hs7cORrjf/Hdc1Vrsy557E1kULsWp/cRht6o/v6J7s++ErLN16CtnaPbcNywuOL8ObM9YgASoYH3A3BnZqgkhf9fdm90p89+16HMsOxBWDnsEQc9Jt8/wUh+XyPQnY1XlulGc27TBWLvgSW1QK731Jf4x74nroj7/L1y3+eyE9xbLzgtGm1424uk0j1FT/HRnuj+PL3sSMNQlQNx0D7h6ITk0i4Zt9FLtXfodv1x9DdqBa9zNDSgX2Lv3jwIMpQAEKUIACFKAABShAAQpQgAIUqLYCY8aMwXHV0kM2+OzTp4+2DskOR40ahaysLLz//vsIDQ3Fs88+i/3792sV4m3bttWOm6j6gp89exYvvviiFkK/rVqfrFu3DkOHDsWAAQO0Y6QFiwTv0dHReOedd5w62QvLJSjWK6zNJwhdvhw1VfW6caSrltHJqrWMDMk0JcuUNUjleFnjv//9L8aOHYuXX34Zmzdv1jaqjFB9wGU9Dz30ECIjI53O35MH7NixQ9t01bz+aOUeUBzq69fT286UdX1j+xWrJq6upyLDcpmLIxPzJqhW5l21wnI1Yz3ADbxyCCbdc0VJlW6pqnJZnR6W+zfH7eOGoItN/44CJKyagTd+OAEYwseCPZ9j8tztyLUbiOtBei4aDJyAx6+r6dDQ8jz1kF9VeduG9udOna7WME1Vx2eHdcPI525BI/mm22F5MqAs7pwwDJ3KqIzXF6WvwbvJLXhuRDecf0sBdn86CfN25KrzGT6cKH5j+vpZmLLwEFTCj1fPlSrDZdfD32LKe7/Cp8doTPx7/eIzqwr846fVJ5PF5fJWjjmyEFNmrsdZuwGvOl9xMFxoDMut3hObsDwJP779Opaf8LcbiJcE2v4dMeylu4sr4+09PnpY7o/md07AMOONKtiNTyfNw45c428NuHHdkg+RItBj9Dj83fipT5L6kOL15Tjhby8QP+/l33EYXrr7XH0/BwUoQAEKUIACFKAABShAAQpQgAJ/LQEJgVNTU20qxj0tIBXo0r9ceps7G66G5RGzZiFEbSJqHGcefRRpKvjX241IMHz55Zejdm1jta79mTRp0gTXX389pA3NsWPHMHPmTG3ecg6plpe1NGvWzNkyPPLzpKQkxMbGatXlxnYsMeqDC39VdW4c8aodTl7DhmVe19h+xRUTVxZT0WG5I5OLIiyHvapte1XlckeKQ8GInk9igt6PxOZOHcHCKTOx/qyqVP+nqlRX2feez5/D3O0+aH/vGPTXkmnTSP0FH7/3E06rAHmyCpANLZ5tD7Q4zywVLE9SwXJYt5F47hZ7F8zChg8m45sDvrhyyBSozwfKFZaHdBmOSbdb25BAD8ub3DIZI7qZVqoHrvZawRRXfJ8wBNAuu+r31OvcbwQMvNpe7/bi3yYo45gDX0/GBxuz0PS2SRje1c7d0gPoGufbsDi/J0lY9eZr+CHeUFmur7l+H4y5/yq7z8W+ha/j6z0BquJ+kqq4d/RPRnFY7n8lhky5R8XxtuPcejJUID9NVairn7lzXf3e2XmGU358G68sP4H6fcbg/qvsPd37sPD1r7EnoAuGT7od1p4kV/555LEUoAAFKEABClCAAhSgAAUoQAEKVHUBaTMi1d9Tp07V2pRUxJDK8927d2OB6iPubLgalkc//TT81SajxnFKtX3JUeG43n5F2qh07NjR2aW1n7/wwguYpQJ4CallM1AZKSkp+PjjjzF79mwkJiZqm5g+9thj6NGjh6VzlucgqXCXSn9jO5boCRMQoKr8jcNZZbm5/YorJq7Mv6LDcpmLPRP5vquBeZWrLJdF6CFumAp+J6rU8bi5V7l+N/TezHqwaOcunevvHYZuI5+DZNXn/tvC7TS17bD3Divz1I8pCT/tnKjUMeWoLG9+51RVrWyt33SZcysrLLfZpPJcH3B3XNN3f4EZn26F1l7d2x+RzXvi1rt62/SLd3aMvf7ttsRZWD9rEhamng/LrdyTc6F1QwyaptqRnHso8apqCq9q952Osu617Qafxh7q507r8FlwelXVNEb/e1B872rZVO3bnt/56Ur3a3f+Hh5BAQpQgAIUoAAFKEABClCAAhSgwMUg8OCDDyJdbZL5/PPPo127c10FPD2kXcsRtSGlpyvLvTMzccl995Wa7nHVTqUgKEirLJdW0o0aNUKDBg0sLevQoUNan/Yn1Saa0p/dOKQd9fz58/Ge2kzzgOoZ3rp1ay00v/XWW0s2PbV0ERcOklbaMicJy/XAvK4Ky/3//NPmLHGqxU2+6i3vaBiryl01cWG6qIyw3J6JBOUXRViOkjYZTXHbM+2wY5qpV7l+N/QNPh0GxAXYPHsivtp3vq3FuXA1SKss71XjCI4kq1Yj9kZQPdWzqL7jynJ5j4V5llm9XXzd44un4p11Z86HneUIy8sOam0X6vmw3A3XvGT8+etKLFv7G46nqX7d9trjlHHMufsZUkY19ymseP0NrC4oHZbbragvJtrxnwmqD3qL0mG5VlneAin749U2mfZHRLPOaBbh6J8MfYNP84aj5453GJa7ct0yfuNCP79WWd4iBfvjHa4CzTqran9X/uXjsRSgAAUoQAEKUIACFKAABShAAQpcFAISCku7EQl9b7jhhgpZ0yOPPKL23gv0eM9ye5t75qqNOeOnTdOqyvXXVVepzgEqPLc6pNp+69at2LNnj90QXILn77//XmvRsnHjRsTExODhhx+GfPAQFhZm9TKWjstUHwjINXx9fUt6l9cbP75UNX2cmkt+3eJ2x6Yzm/eiFBdXTSxNVh1UGWG5PRPjBqhW51olK8tl8nqPcmmYn5ycjJi+4zG2t6mHUHEo6K9ahTyrelaUerzT12PWlIU4JL2n/6UqhFXBtd6Gwr/dA5g8uHVJT/TzYAXq00V/cBEAACAASURBVCX5VMYaodN5qh7pz6ke6fml+oIXn7/gAL6e+gE2no1B3/FjoS3x1Aq8/sZqJBj7mJdMRx0/WR2fYexrbSdktTB9T4blrruanfOw/6vX8NHm7PPtaOD8GP26+m8hlLpt+gcPxt8UcHZP9BY7ucbq6j34/Lm52J5ruE8mY/kETj7NK3u4GJbDjeuW1Z6oeO25MX0xfmzvkk1E3X3+LTxmPIQCFKAABShAAQpQgAIUoAAFKECBaibwyiuvYNu2bejXr58W+BqHtE5ZsmQJbrnlFq3nd1njgw8+QHh4OCRoNg7pVS7n7datm7Z5prPhShuWGiqwrvXhhzanTFfrSFLX06vKpd1Ip06dnF3W5uc//PCDtimpVJBLn/Kyxm+//aZtbLp06VIEBwfj3nvvxYgRIyxXsluZ2IYNG5CTk1NSXX7JuHHwO3zY5q1xqnVMvtpE1d4wV5W7Y2JlnnJMZYTlch2ziV5Z7kp1eZUNy0uqtgvVSu1sMqndjJKNDAPRoO9DeLR3I/jpdynvCBa/NQvrEgpt+4Vn7cB/pn6K2Gw770Eejqx6H+vDH8M9FluZOJ9nnKpsfhurE4CoHiMw5u+GORakYvO8N/DVnmzYBv56r3VvXNL3KYzqHVUc6hs2rFQ1vz2fnAC9VbuV1iLmB9iTYTlcdc1aj6+XRKHfnZeVbCx6rpf4EbVv6KvQ9g21dIwKn/81H3tyA3HFnU/hgU7hJR+AFKT+gYUf/h82qmcANm114rDs1elYk+xd+p7kxeOnOe9hyYFsNQHbViRxK17H23Ijw6/EPaPuQjvDhrIFqTvw5fwT6DF8ABz/cov20GLuM2q+Dtr82LsnLl+3zF7+55/H8Cvvwai72uH8MgqQuuNLzD/RA8MHnN90NfXwFuw8FY22VzU2HGv1n0MeRwEKUIACFKAABShAAQpQgAIUoEB1E5AKaenFXatWLXz00Uc203/99de1qmap2pWqaQnUzcWDEoZPnz4dv//+u/ZeOVfNmmozweIhwfOHKtAePXo0rr32Wqc8roTltVRAX2PFCptznlFV7Gf79tWqyqXYUaq+Xe3FLuFy+/bttfeuMJ3f0QIOq/BawvXPP/8c0q5l4MCB2prlPOUde/fuxcmTJ7XqcvG/5Kmn4K9+G8A44t5/H/nFPdaN39eryuVreUysrqGywnKzib4BqszTamBedcNyVVW8c94L+GR3nv2qclllcSgoC5cb6xNaH00b1YR/bgqOHDgO1dUDPjG9MPKJfqhvKPgtOL4Mb85YA8lQS96DTCT8eQSnsgvgf+UQTNF22rQynM+z4PiPeO/D5Tim8lfj9eL3HUZibiG8Vfh63xP3oHWN89dLV2ubppqrZ8MbwXWb4dLa/siM34fDid6oHeWDhISAqhWWq6m74lqg1vesWp9XxOXo0b01InMOYd1PW3EKauPLSWrjS3W/rBwjYum7P8fbn2xHaqE3/CMbo3lMMBQW9h1ORC4CEeibjWzDBp/yHrv3pOS5Ue8JVO/JNvftTleP3DTV9kXdSOmx3rg55FK5Kcdw+GQqcgvPbyTr+MlxPSxXK3Ttus42vk1Xc5imAnttGZFo3DwGwUoq5dhhnEzNReEl/fHPJ66H9r8wfYNR9ceoXk9hXD/7n0Za+ZvCYyhAAQpQgAIUoAAFKEABClCAAhSoHgJ65bfM9qWXXkLLli1LJr5jxw68+uqryMvL074nleMSeOstTWTjSQmTpepZRtu2bbUNMo1D+pXvV5tRSr9yf39/pyiuhOXRqsLaX/UON45TL7+MrOLNPSUsb95cZToq9HZ1SPA9adIkrF69WluX1SGbgcqHDrIhaFJSklbVLi1uJDy3GuKaryVBubSE8fPz08LyBqpC3+/ECZvDTqoPDgqiokpN09yCpTwmVgwqKyw3m0hm7GorlqoblustVHzb4YHJg9HaXneLklDwYdzuvw7frtmnhc/a8AnFpT3uxD39LrdbDStVxys+/wrrDqapWL54qAA0vHE33H5PP1xuqBou86ZbmaecIH0/Vn35NVb/kWxzvchWf8cDg7ogpqQkXr9aARI2f4a538WWrEmCzSvvHI7uJ2bhnTWocmG5zNyya0ECNn82F9/FqkC7+JZ5BzdCv2GP4nr9kw0rxxRz5cVvxPx5ixGbqMLecw8AQuu3x433dEfCx+9gDUr3CC89Vwnbm6PnrXch4ueXVChub5PLPMRvnI95i8/fF+1qgdFoOXAwBnWJOf/bDXYfHHfCcjmRC9d1FpZrp4vHxvnzsNjgL2aB0S0xcPAgdNEfSMNvDLQaPFFV/Fvv5WXlH0seQwEKUIACFKAABShAAQpQgAIUoEDVFJimenxv2rQJl156KeTPxiEbc0qFeXx8fJmT79mzJ4YPH64FuvqQc8r5brzxRgwbNszS4q2G5Y429zw2bx7yVX90KbbNz8/HlVdeqYX8ro60tDSt9Yxs3jljxgxX3659gCBV5rNUe5SDBw+icePGmo+0aZF2La6M1NRU7f6IrVSXN1J95n3j4mxOcVJV9BeoFtfmobdg0fu3l8fEypwrKyw3m+hhuSsbfV6YsNypYgEOfD0VH2w867iqXM5hJxTMyzij6nBroFZIqfTZ/lULspB6NlsFrN4IDAtHkLOW0zZnsThP43tKruePGrVCnASr8sY8ZJxJV3W/Vo93ils5B1h11Y/zDkRYeJCdHvJqulaO0VelHau0XLqX54zVDcG5xyYL62dNwsJD9sLy83zasyb7w/q78Lx5QN+z19WfL1mGvn7TJPMycCbX3/rfKQ+skaegAAUoQAEKUIACFKAABShAAQpQ4MIKHD9+HGPGjNEmMWrUKEjwbRzSVmThwoX46aefbELzyMhItGrVCr1798YVV9h2bpBNGMepym+pXJdK65CQEEuLtBqW+6sAOvrpp23nqcL+uOLNPaWCWoJh6ZUuPbrdGWLy1VdfQXq3S5sad4aE1cuWLdM2A928ebMW3EtLG+njHu2gx7j5OhK8r1mzRqvM18LyJ56A3+nTNoednDMHBYb2N/oPjWG5J0ycGVRWWG42kYp7vRWL1Qr+qhmWW63WtlJB6+xulefnVudZnmvwvZUvkLUBH0z+Bgdqlq5Gr/zJ8IoUoAAFKEABClCAAhSgAAUoQAEKUODCCLz77rtYu3atFsbKpp9SZe7ukCrmKVOmYOfOnVoLkhtuuMHyqayG5UEqeI6cOtXmvJnXXIPTKkjWe3NL+xgJ/s191q1ORvpiX6PO+dxzz+EJdd7yDqkOlyp16RMvzrfddhsef/xxtGjRosxTS8gtvd8lLJfq8iYqxPc1h+Vz56LAVEFvrwVLeU2cGVRWWG420cNyV1qxVMGw3IVq7QsalrswT2dPDH9e+QKn1mLh3pb4+7X65qnFUzBsuhrTdzzG9q5d+XPjFSlAAQpQgAIUoAAFKEABClCAAhSgQBUQkPBx/PjxkI0qpU2IhMMdO3Z0eWbSs1s2/IyNjcVNN92EBx54wKVzWA3LZWNP2eDTOM7ecguSBw/WNvaUlwTDUvVeniEtZKTyXnqQe2pIv+0vv/wSK1eu1E553XXX4Sm1aadUwTsaUp1eEparNiylKsvttGHRq8rlq1UTCbvLM+QDAWnZI33iO3fuXJ5TQZ6FsobRRMJyeeltWKxUl1e9sNyVau0LGZa7Ms9yPQJ8c0UIZK2fhUkLj6jNU6/ENd2bIEwucvYQfvl5O+IyVVOeqJ4YNXaAzcawFTEPnpMCFKAABShAAQpQgAIUoAAFKEABClRlAWmd8rRqbXK6uGpZKsKlZYjVHtvr16/HbBXanj171q2gXGyshuXhasPQsAULbDiThw7F2f79tWBYWrBIWN6nT59ykcuHBrI5aUUNCXhlvmFhYThg2qzUeM2lS5eWhOWNn38eAYcO2Uwp7p13kF+/vs33zGG5FRMrIXNFWZjPq1fGO7qe0UQq9at5WO5itfYFC8tdnGdlPS28jmWBgoTN+Gzud4YNQYvfqjZ5jWx1M4bc2wlRLvWvt3xpHkgBClCAAhSgAAUoQAEKUIACFKAABaqVgATM0oZl165d2rwlxL1FVWy3bNlSa82it7nQF5WcnIzff/9d66n922+/aYGubObpSusVI5DVsDxChcMh6prGkaB6pKd36mQTlvfq1cvtNixy7oEDB+LEiRP4wFTFXp6bGqc251yggn5pxyLDWWW5hOnLly8vCcsbvfYaglQfdeM4pXq15zZrZvM9e/3K5f6WZVJdKsvNJnpY7krf8ipWWa5vNmhxs03ZeFDtsOgdGIZw13bmLM+zq97r4jzLeTW+veIE8jKOYn9svNoUVo0aMWh1WcPiTT4r7po8MwUoQAEKUIACFKAABShAAQpQgAIUqG4CErJu374d//73vyGbe+pDgkjZ6LJ27drIyMhAUlISsrOzS37er18/3H333VrA7u6wGpbXUX3EA1RIbxzxqod5VtOmJWG5zF16lru7wafes/zZZ58t2QDV3XXJ++TDhLfeekvb8NOVnuWymaXes1w+jKivPiiooXq2G8fpF19ETtu2Nt+zF5aX18TZ+iurZ7nZ5CIIy53R8ucUoAAFKEABClCAAhSgAAUoQAEKUIACFKDAhRKQjTIPHjwIaa+yZcsWJCYmloTnEtpGRkaicePG6NChA7p27YrAwMByT9VqWF5PVa/7qKp24ziuqr/zVJiv9yuXKmqZV7hp40urkxw7diy++OIL7FZV3PIhgTtDAmupCp85cyakn7fMRVrbPPzww4iOjrZ0ytTUVG3zVQn9ZYPP+nPmINRUVZ84cSKyVFW9cZjDcvEor4mzCVdWWG42ERd9k0+9b7mzuVaxynJn0+XPKUABClCAAhSgAAUoQAEKUIACFKAABShAgb+SgJWw3EtVs9e/917bYFj1/j6qgm0J+PWwXKqo26pq63r16rlMmJaWhssvvxy33norZsyY4fL7pfJ5/vz5mDVrltaLXD5UGD58OO5V87baA16/qGwwum3bNq0Ni7zqzZuH8FWrbOaUpHrNZ5o2CLUXlpfHxApCZYXlZhOG5VbuDo+hAAUoQAEKUIACFKAABShAAQpQgAIUoAAFqo2AlbDcV/X8rjtypM2a8ho0wMnp00uF5Q0bNtT6rbs63nvvPUyaNAmrV6/WAnerIyUlBR999BE+/vhjrU1NJ1Xt/dhjj2m9z93dPFP6xx9SG3qWhOWfforwFStsppSoquCzrrnG5nuOwnJ3TawYVFZYbjZhWG7l7vAYClCAAhSgAAUoQAEKUIACFKAABShAAQpQoNoIWAnL/Y4cQcyTT9qsKeeKKxD/8ss2Ybm0HJHWMLKBpitDQub27dujbt26JZtwOnv/4cOHIQG7VJNLVbmE46NHj9bOU96xSlWRZ2ZmlrRhqfv556ipWrsYR5LyyOzRw2lY7q6J1TVUVlhuNmFYbvUO8TgKUIACFKAABShAAQpQgAIUoAAFKEABClCgWghYCcsD9u9HnfHjbdaTrULpU2rTT70NS35+vtZfXV69evVyqfXJypUrtXYp0kLljjvuKNNNNu18++23sXTpUu0a8r4RI0aggap098SQkFw2BJV+5XpleYwK5Guq6xlH8pgxyLj22jLD8vKYWF1LZYTl9ky4wafVO8TjKEABClCAAhSgAAUoQAEKUIACFKAABShAgWohYCksj41Fneeft1lPVpcuOD1unE1YLlXUUuXdunVrNGnSxPL6Bw0ahK1bt2LPnj2QENY8pPJ8hWqDIr3MN27ciJiYGG3DTtm4MywszPJ1rBwo/c4lkJegXN/gM/rLL1Fr8WLbsHzUKGTccIPTsNxdEytzlWMqIyy3Z8Kw3Ood4nEUoAAFKEABClCAAhSgAAUoQAEKUIACFKBAtRCwEpYHbt+OKNVyxTikBUnCE09AgmzZ4FOqqCUYlsryoKAg3GAKkh1hSG/wzp0746mnnsKECRNsDpNzSZsVabciga2E8FJFftttt9kN1T0B/sMPPyA9Pb2kslzajdSbPRuha9bYnD5JzTeze3e7YXl5TVxZR2WE5fZM9LBc+sLrL2fz9srIyCiSm5qtdow9evSos+NL4co35FcZzLvK9u/f36Vz8WAKUIACFKAABShAAQpQgAIUoAAFKEABClCAAmYBK2F5kKrmjnztNZu3pvfujaRHHy0JyyUw18NyyUO7qyA5KirKKfjzqmJdNujcuXMn6tSpox0vm3bKhp2zVUidmJiI3upasmlnD1OPcKcnd/GA06dP48cff7RpwSJheRMVjPvFx9uc7bTyyLnsMpvv6Rt86mG5uyauTLuiw3JHJj4+PpAXw3JX7haPpQAFKEABClCAAhSgAAUoQAEKUIACFKAABaqsgJWwPHjdOtSePt1mDWlqQ80zQ4faLfSVsLx27dq45ppryly39MJu1aqV1uNcgvFjx45h5syZ+Oyzz7Rq9bvuugsjR45Es2bNKsVv7dq1kHBY71UuX4NSU9FEbRxqHEXe3jihWrPIV5vvqyp7GfaKn62auLrQig7L7ZkYN/f0LjaQ0NzZYGW5MyH+nAIUoAAFKEABClCAAhSgAAUoQAEKUIACFLhgAlbC8pDVqxGhQmzjSFOtUM4MHqxVlhu7Yhiry7t164a6des6XNu8efO09iuvvPIKNmzYgEWLFiEiIgJDVQj/0EMPITIystJc4uLisEa1WjEG5RIK19yxA3XfeMNmHrK5acILL9idm15d7q6JqwuuyLDckYkxLLfagkXWxbDc1bvL4ylAAQpQgAIUoAAFKEABClCAAhSgAAUoQIFKE7ASlocuX46aqlWKcZy9+26kqMpvPSyXcNjYt1wqqWWDzH79+mntOuwNadWyb98+7UdNmzbV+pHLZp/yvsocUsW+dOlSZGVllQrLo7/4AjVNm3ueveMOpN57r90pGsNyd0xcXXdFheVlmUi/cqkolxfDclfvGI+nAAUoQAEKUIACFKAABShAAQpQgAIUoAAFqqSAlbC8xrJlqKXapNiE5ffcgxQVGhvDYQnL5SVBuf5q3rw52rVrZ3ftsmFnkyZN8Pjjj6Nv374XzOe3335DbGysTVAuFeZhe/eivqp6N4/EZ55BVteuZYbl+ocIrpq4ilBRYbkjEwnK9bDclX7lsi5Wlrt6d3k8BShAAQpQgAIUoAAFKEABClCAAhSgAAUoUGkCVsJyu5XlqgI85c47tXkaW7HoYbl5s88GDRpU2ppcudDRo0chfbmltYjegkX+XOeXXxAzZ06pUxWFhOD4f//r8BJiUZkmFRGWOzIRHwnK5TcF9KpyLQS30K9cOy4jI6NIPkXJzs6GXMSVocPaawjfv39/V07FYylAAQpQgAIUoAAFKEABClCAAhSgAAUoQAEKlBKwEpbXUG1YapnbsKiwPLW4DYteXS6tO+SlB+XGr9KORTb9rEojKSkJS5Ys0YJyPSyXrw2++QaR339vd6rJasPRDLUhaVlD95CvFW3i6bDckYkE5XqvcgnLXa0q91hYbg+VYXlV+mvFuVCAAhSgAAUoQAEKUIACFKAABShAAQpQoHoK2AvLjWGorMpuWK56lqeql72CX713uTEsl+NuvPFG1KxZs0pApaSkaEG5DD0sD1PheaMFC1BDtWSxN7K6dEHi+PFO51+ZJp4My+2Z6CG5GBmryqWyXAvALVaVa8d6orKcYbnT548HUIACFKAABShAAQpQgAIUoAAFKEABClCAAm4IWAnLQ9asQcQ779icPe1vf0PK0KHa98ybWurV5cawXP4sQ3qTX+gKc6meXqb6sMu89aC8jgrIL/3kE/ioTT7tjcyrr0bSuHGWhS8GE2O1vV5V7s7GnjpahYXl8lA52kXW8h3jgRSgAAUoQAEKUIACFKAABShAAQpQgAIUoMBfVkBCbamuNvbqlszRXFketGULIk0bXWb26IGkJ58sCcvlD3o7aflqrC6XoFx/yfd79uyJhg0bXhB3aZW9evVqbY1SKS0hcKP//Q8NFi92OJ/U22/H2cGDXZqvubq8upnoHyLoX/VNPfWwXDBcqSrXjq+IynJ5sLqq3Varyq8suPSU8GAKUIACFKAABShAAQpQgAIUoAAFKEABClCgSghI2w3Z3DIgIKCkwtpeWO6/dy+iJ060mXN2u3ZImDSp5HvmPt3OwuG2bdtCXpVVECwfDOzYsUN7SeAr4W+I2mey2aJFqL11q8P7kTR6NDJVuO/OqI4m5pBcb78iZu72KtftyhWWy0nMzfH13WRl99hWrVq5c4/4HgpQgAIUoAAFKEABClCAAhSgAAUoQAEKUIAC2LlzJw4dOqSF5VJdrvekNleW+8bFoa7a2NI4CiIicHL2bJuwXM8z9QpzyTL1l7m6XL4fGhqqFQXXq1evQu/GyZMn8euvv+Ls2bMlQXnkkSNorvqTB54+bffaOU2b4swjjyC3WTOXK6j1E+rV5fK1OpjolfbGanL5nrGqXK8md7WqXEw8FpYLpnEn2dzcXHTv3v2C9/ep0KeYJ6cABShAAQpQgAIUoAAFKEABClCAAhSgAAUqRCAxMRFrVC9yvQWLvpGjBOVSRSxhqDEQrX/PPfDKybGZS8LLLyPbUNBrrKTWw2HJNI0tWfQ/y1f5mbykMLhNmzaIjo726FpPnTqlfSAgrVf0ymhZX8NNm9Ds668dXiutVy+ckX7sgYFuB+XGwNxe//KqZqIH5cbA3Lyhp/5MuBOUV0hYrleWS1guD5wE5pGRkR59iHgyClCAAhSgAAUoQAEKUIACFKAABShAAQpQ4OIVkKD8xx9/1AJkY1huDEfNYXnEe+8hZNUqG5S0225Dyn332XzPHJjrgbixwtxYca7/XLJOyTkvv/xy1K9fH8HBwW7dgMzMTBw/fhx79uyBrFPWYQzKL9m2Dc3nz3d47mQVkqcNGFDqwwK3JlP8pqpuolePGwNz428ZGD88cTcoDwzw83xluf6Jg4Tl+qtFixZo3LgxwsLCKq3HT3keDr6XAhSgAAUoQAEKUIACFKAABShAAQpQgAIUqFwBCaWlDYm0XYmNjdV6lJuryssKy4NVG5Par79uG4yHhODU1KnIU+G2PoytR/T2I+bA3ByWy38bNweV90lwLhXn8lXatQQFBWlz1nuc6104srKytHVJMH7s2LGSgFwPyfUNKWVttQ4fRtsZM+zC59epgyTVdiW7ffuSanJ3g2HzBaqyib7RqTEwdxSUy7rcNfHNPOa5sFxA9YdK+vvoQblxF1n5uTxU+icVlfvXjVejAAUoQAEKUIACFKAABShAAQpQgAIUoAAFqqKAXiWuV1gbW23ogbkeRDvaxNFLbYZZ/957Sy0vW7VPSXjxRUlR7Qbmel6pZ5t6Wxa9DYuxHYuebxozTnPWqQfP5uDW2CLEGJTrG5YGqYrz1iooD4yPL7WGjM6dkTxkCAqjojwelNv7EKGqmOhBuTEw173050CvKi9PUC5V5X+smO6ZsFwmYq/HjwTmDMur4j8/nBMFKEABClCAAhSgAAUoQAEKUIACFKAABaqOgLOwXIJyc39qe+Fo+CefIOybb0otLH3gQJx56CGb79urptb3ZdQDc+NXYzsWPQvVK9PlxMbz6RcybzapB7t6Nbmx/UrzOXMQsX17qbmn3HQTUu6/36btirvV087ueFUzMYflelCu+xlb8ZTHxCt1P47s+MFzYbn5Vxbs7R7rqLLc+GmLsxvGn1OAAhSgAAUoQAEKUIACFKAABShAAQpQgALVX8AYbtoLy43V5caq8rIqiaW6vM6kSfDfv790YK76fJ8ZNsxSYG4MzY0V53q+acw5zZ007FWWG9dn7FGuh+UNli5FjHqZR2bHjjg9YUKlBOX6tR0F5pVtYqwgN4fk5g1eyxOUhwR4Ydf37yDQ37f8Ybn+qYlxx1Tjryro/X2Mn7wYG8ZX/7/WXAEFKEABClCAAhSgAAUoQAEKUIACFKAABSjgroCxPYmx0tpej2orGzn6HziA6PHjpRVGqSlldemC5BEjUKj2VnQUDutFwcZOGuaQ3Ni/3NySxXxR8/qMVeXy56hNm9Dg449LzTVf9UKPnzwZBdHRFdZ6xdE9MwfmlW0i4bjxWTCaGT1l/uUJyuW8Cbu+Q3riEQR5YoNPPSzXv5ofImNPH+OvJ9j7tQR3/0LxfRSgAAUoQAEKUIACFKAABShAAQpQgAIUoED1EzC2KbHXx9u8kaPV/tTBP/+M2m++aRckt2lTJD/+OPIaNiwzMDcHxOaA3Jx12isQNvcpN2/qWUMF+5e+8ordecY//zxy2rWr9KC8rA8RKsPE/GGCueWKp1qvyDp91Kae+zZ8q6rK/RAU6KHKcj0oNz4Qelm+8avxATKG7NXvrzFnTAEKUIACFKAABShAAQpQgAIUoAAFKEABCnhCwBiYm3t569XF5opyK9XEoUuWoKbqA+5oSB/wtFtvLRWYO8o6zUGx/t/GTNReu2l7G3vK9/zT09Fw6lQEnDhRaorJw4cjvW/fku9bWa8n7oX5HMb1mNepV9QbP0Qor4m5grys+15ek2CfXPz2/SwE+PtoVeVBgX6eacOiI1oFMyNXxI3kOSlAAQpQgAIUoAAFKEABClCAAhSgAAUoQIGqLeCob7mxmtidoFxfdfC6dag9fbpDhLwmTZB6993I6ty5VGhurxWJozBYz0X1oF0/mbly3hic1333XYRu2FBqbmdlQ89//EP7fnkDYU/dfXOXEEc5sPn7zjY9dVR5b/6+0cITJsEBPti2+N/w9/PVepUHBvgiONDf82G58YEw9+tx9NB46qbxPBSgAAUoQAEKUIACFKAABShAAQpQgAIUoED1EygrVJawvDxhaeCuXYhQgblPSopDGOllntWhA7Lbt0dBVBTsFfua26zY+29jNmpvzloIXFSE6JkzUeOXX0rNJ0tt6Jnwz3/arLeq3M0KNREX9dLNHLVa8URQHqiqyPf/lko7SQAAA4tJREFUNBfZaUlaSK61YKmIynLzw2DlgakqN5vzoAAFKEABClCAAhSgAAUoQAEKUIACFKAABS6cgDEstReaGsNnV2fpd+wYas2YgYD9+52+VQvNVWgtPc3zYmJQEBGhvcdeSxJ73zdfwBjwBv3xB8KWLkWI2tTTPOQ6p6ZMQYG6ZlUejrqGOCqUdtSaRl+jOSQ3f788993sGKCC8aObFyDl9CEESFW5CsslKPd4z3LzhR190lDWcVX5IeDcKEABClCAAhSgAAUoQAEKUIACFKAABShAAc8K2KsUNofmHgtLCwsRtnAhwj/5xKVFFIaHI69RIxSor4W+vmpXSB8USbW7+nOR+rP8d2HxV+2/pUJavYrUVbzz8uCdmam9AvbuhZ+d/uT6ZBJeeEGrbK8uwxyCO/tve+sy339n/10eG6koP7zxq5KgPKC4/YpeWS7/7ZWRkVGUm5uL7OxsHD16tDzXK/Vee58ayEGOvu/Ri/NkFKAABShAAQpQgAIUoAAFKEABClCAAhSgQLURcNRiwxOtN4wIUmUe+s03CFm7tsrYJI4di6xrrqky83F1ImXlvc4qy83X8vT9lvNLj/I9a/4PmWcTVZ9yn5KqcgnK9VYsstFnhYbl5oUyJHf1MePxFKAABShAAQpQgAIUoAAFKEABClCAAhT4awlURFhqTzBo40bUWLYM0tP8Qo7EiROR1anThZyCx6/tSg5c0fc7yDsHGxe/Cz9fn5KgXAJzqTTXN/eUliwVXlnucWWekAIUoAAFKEABClCAAhSgAAUoQAEKUIACFKCABwX8Dh1C4G+/IXjzZvirnuKVNXIvvRSp991XrVqvVJaNJ64jG8MWph7Ezp8WaEG5HpZLQK61YFFV5VJNLn+Wl786plIryz2xSJ6DAhSgAAUoQAEKUIACFKAABShAAQpQgAIUoEBFCEiLFn+1Caj/gQPwlT+rIN07I8Ojl8q47jpkX3UVMrt39+h5ebLzAsH+wP4N3yAp7mBJUK4F46qC3L94Y099g0/5bz9fb+04huV8iihAAQpQgAIUoAAFKEABClCAAhSgAAUoQAEKOBDwSUiAV34+fE+d0r6ioABe6qV9LVLbeKpNPL3U5qFQPyuIiIBvYqJs2gio7xXJJqDBwShUr6KgIOSoavKikBBaV5CAtFZJO7ETsb8uga+Pt9qD9VwIrvcpNwbl2vekolx9lWPluP8HpEDZYKviPzwAAAAASUVORK5CYII=;" vertex="1" parent="1">
          <mxGeometry x="300" y="55.42" width="470" height="29.16" as="geometry" />
        </mxCell>
        <mxCell id="2r1wk7_mXnwwI7fHC9Ym-7" value="" style="endArrow=classic;html=1;rounded=0;" edge="1" parent="1">
          <mxGeometry width="50" height="50" relative="1" as="geometry">
            <mxPoint x="100" y="120" as="sourcePoint" />
            <mxPoint x="100" y="170" as="targetPoint" />
          </mxGeometry>
        </mxCell>
        <mxCell id="2r1wk7_mXnwwI7fHC9Ym-8" value="Event listener gets called and does the following" style="rounded=1;whiteSpace=wrap;html=1;" vertex="1" parent="1">
          <mxGeometry x="40" y="190" width="120" height="60" as="geometry" />
        </mxCell>
        <mxCell id="2r1wk7_mXnwwI7fHC9Ym-9" value="" style="endArrow=classic;html=1;rounded=0;" edge="1" parent="1">
          <mxGeometry width="50" height="50" relative="1" as="geometry">
            <mxPoint x="100" y="270" as="sourcePoint" />
            <mxPoint x="100" y="320" as="targetPoint" />
          </mxGeometry>
        </mxCell>
        <mxCell id="2r1wk7_mXnwwI7fHC9Ym-10" value="Get the text inside of the input for sending messages, and sends it /posts is to send_message.php" style="rounded=1;whiteSpace=wrap;html=1;" vertex="1" parent="1">
          <mxGeometry x="40" y="340" width="120" height="100" as="geometry" />
        </mxCell>
        <mxCell id="2r1wk7_mXnwwI7fHC9Ym-11" value="In send_message.php" style="rounded=1;whiteSpace=wrap;html=1;" vertex="1" parent="1">
          <mxGeometry x="40" y="520" width="120" height="60" as="geometry" />
        </mxCell>
        <mxCell id="2r1wk7_mXnwwI7fHC9Ym-12" value="" style="endArrow=classic;html=1;rounded=0;" edge="1" parent="1">
          <mxGeometry width="50" height="50" relative="1" as="geometry">
            <mxPoint x="100" y="450" as="sourcePoint" />
            <mxPoint x="100" y="510" as="targetPoint" />
          </mxGeometry>
        </mxCell>
        <mxCell id="2r1wk7_mXnwwI7fHC9Ym-13" value="" style="endArrow=classic;html=1;rounded=0;" edge="1" parent="1">
          <mxGeometry width="50" height="50" relative="1" as="geometry">
            <mxPoint x="100" y="600" as="sourcePoint" />
            <mxPoint x="100" y="650" as="targetPoint" />
          </mxGeometry>
        </mxCell>
        <mxCell id="2r1wk7_mXnwwI7fHC9Ym-14" value="Is the message null, no charachters or just whitespace?" style="rhombus;whiteSpace=wrap;html=1;" vertex="1" parent="1">
          <mxGeometry x="20" y="660" width="160" height="100" as="geometry" />
        </mxCell>
        <mxCell id="2r1wk7_mXnwwI7fHC9Ym-15" value="" style="endArrow=classic;html=1;rounded=0;" edge="1" parent="1">
          <mxGeometry width="50" height="50" relative="1" as="geometry">
            <mxPoint x="200" y="710" as="sourcePoint" />
            <mxPoint x="280" y="710" as="targetPoint" />
          </mxGeometry>
        </mxCell>
        <mxCell id="2r1wk7_mXnwwI7fHC9Ym-16" value="No" style="text;html=1;align=center;verticalAlign=middle;whiteSpace=wrap;rounded=0;" vertex="1" parent="1">
          <mxGeometry x="395" y="680" width="60" height="30" as="geometry" />
        </mxCell>
        <mxCell id="2r1wk7_mXnwwI7fHC9Ym-17" value="Respond with error: Message is empty!" style="rounded=1;whiteSpace=wrap;html=1;" vertex="1" parent="1">
          <mxGeometry x="500" y="680" width="120" height="60" as="geometry" />
        </mxCell>
        <mxCell id="2r1wk7_mXnwwI7fHC9Ym-18" value="" style="endArrow=classic;html=1;rounded=0;" edge="1" parent="1">
          <mxGeometry width="50" height="50" relative="1" as="geometry">
            <mxPoint x="100" y="770" as="sourcePoint" />
            <mxPoint x="100" y="820" as="targetPoint" />
          </mxGeometry>
        </mxCell>
        <mxCell id="2r1wk7_mXnwwI7fHC9Ym-20" value="Has the user selected a chat to send the message in?" style="rhombus;whiteSpace=wrap;html=1;" vertex="1" parent="1">
          <mxGeometry x="25" y="830" width="150" height="100" as="geometry" />
        </mxCell>
        <mxCell id="2r1wk7_mXnwwI7fHC9Ym-21" value="" style="endArrow=classic;html=1;rounded=0;" edge="1" parent="1">
          <mxGeometry width="50" height="50" relative="1" as="geometry">
            <mxPoint x="200" y="880" as="sourcePoint" />
            <mxPoint x="280" y="880" as="targetPoint" />
          </mxGeometry>
        </mxCell>
        <mxCell id="2r1wk7_mXnwwI7fHC9Ym-22" value="No" style="text;html=1;align=center;verticalAlign=middle;whiteSpace=wrap;rounded=0;" vertex="1" parent="1">
          <mxGeometry x="200" y="850" width="60" height="30" as="geometry" />
        </mxCell>
        <mxCell id="2r1wk7_mXnwwI7fHC9Ym-23" value="Respond with error: No chat selected!" style="rounded=1;whiteSpace=wrap;html=1;" vertex="1" parent="1">
          <mxGeometry x="300" y="850" width="120" height="60" as="geometry" />
        </mxCell>
        <mxCell id="2r1wk7_mXnwwI7fHC9Ym-24" value="No" style="text;html=1;align=center;verticalAlign=middle;whiteSpace=wrap;rounded=0;" vertex="1" parent="1">
          <mxGeometry x="110" y="780" width="60" height="30" as="geometry" />
        </mxCell>
        <mxCell id="2r1wk7_mXnwwI7fHC9Ym-25" value="Is there a file attached to the message" style="rhombus;whiteSpace=wrap;html=1;" vertex="1" parent="1">
          <mxGeometry x="300" y="670" width="80" height="80" as="geometry" />
        </mxCell>
        <mxCell id="2r1wk7_mXnwwI7fHC9Ym-29" value="" style="endArrow=classic;html=1;rounded=0;" edge="1" parent="1">
          <mxGeometry width="50" height="50" relative="1" as="geometry">
            <mxPoint x="400" y="710" as="sourcePoint" />
            <mxPoint x="480" y="710" as="targetPoint" />
          </mxGeometry>
        </mxCell>
        <mxCell id="2r1wk7_mXnwwI7fHC9Ym-30" value="Yes" style="text;html=1;align=center;verticalAlign=middle;whiteSpace=wrap;rounded=0;" vertex="1" parent="1">
          <mxGeometry x="200" y="680" width="60" height="30" as="geometry" />
        </mxCell>
        <mxCell id="2r1wk7_mXnwwI7fHC9Ym-31" value="" style="endArrow=classic;html=1;rounded=0;" edge="1" parent="1">
          <mxGeometry width="50" height="50" relative="1" as="geometry">
            <mxPoint x="340" y="660" as="sourcePoint" />
            <mxPoint x="340" y="600" as="targetPoint" />
          </mxGeometry>
        </mxCell>
        <mxCell id="2r1wk7_mXnwwI7fHC9Ym-32" value="&lt;div&gt;Yes&lt;/div&gt;" style="text;html=1;align=center;verticalAlign=middle;whiteSpace=wrap;rounded=0;" vertex="1" parent="1">
          <mxGeometry x="340" y="630" width="60" height="30" as="geometry" />
        </mxCell>
        <mxCell id="2r1wk7_mXnwwI7fHC9Ym-33" value="Then the message is not really empty" style="rounded=1;whiteSpace=wrap;html=1;" vertex="1" parent="1">
          <mxGeometry x="280" y="530" width="120" height="60" as="geometry" />
        </mxCell>
        <mxCell id="2r1wk7_mXnwwI7fHC9Ym-34" value="" style="endArrow=classic;html=1;rounded=0;" edge="1" parent="1">
          <mxGeometry width="50" height="50" relative="1" as="geometry">
            <mxPoint x="100" y="950" as="sourcePoint" />
            <mxPoint x="100" y="1040" as="targetPoint" />
          </mxGeometry>
        </mxCell>
        <mxCell id="2r1wk7_mXnwwI7fHC9Ym-35" value="Yes" style="text;html=1;align=center;verticalAlign=middle;whiteSpace=wrap;rounded=0;" vertex="1" parent="1">
          <mxGeometry x="100" y="970" width="60" height="30" as="geometry" />
        </mxCell>
        <mxCell id="2r1wk7_mXnwwI7fHC9Ym-36" value="Is the lenght of the message over 500 charchters?" style="rhombus;whiteSpace=wrap;html=1;" vertex="1" parent="1">
          <mxGeometry x="25" y="1050" width="150" height="80" as="geometry" />
        </mxCell>
        <mxCell id="2r1wk7_mXnwwI7fHC9Ym-37" value="" style="endArrow=classic;html=1;rounded=0;" edge="1" parent="1">
          <mxGeometry width="50" height="50" relative="1" as="geometry">
            <mxPoint x="180" y="1090" as="sourcePoint" />
            <mxPoint x="240" y="1090" as="targetPoint" />
          </mxGeometry>
        </mxCell>
        <mxCell id="2r1wk7_mXnwwI7fHC9Ym-38" value="Yes" style="text;html=1;align=center;verticalAlign=middle;whiteSpace=wrap;rounded=0;" vertex="1" parent="1">
          <mxGeometry x="180" y="1060" width="60" height="30" as="geometry" />
        </mxCell>
        <mxCell id="2r1wk7_mXnwwI7fHC9Ym-39" value="Respond with error: Message exceeds 500 charachters!" style="rounded=1;whiteSpace=wrap;html=1;" vertex="1" parent="1">
          <mxGeometry x="260" y="1060" width="120" height="60" as="geometry" />
        </mxCell>
        <mxCell id="2r1wk7_mXnwwI7fHC9Ym-40" value="" style="endArrow=classic;html=1;rounded=0;" edge="1" parent="1">
          <mxGeometry width="50" height="50" relative="1" as="geometry">
            <mxPoint x="100" y="1150" as="sourcePoint" />
            <mxPoint x="100" y="1200" as="targetPoint" />
          </mxGeometry>
        </mxCell>
        <mxCell id="2r1wk7_mXnwwI7fHC9Ym-41" value="No" style="text;html=1;align=center;verticalAlign=middle;whiteSpace=wrap;rounded=0;" vertex="1" parent="1">
          <mxGeometry x="100" y="1160" width="60" height="30" as="geometry" />
        </mxCell>
        <mxCell id="2r1wk7_mXnwwI7fHC9Ym-42" value="Get unix timestamp for right now" style="rounded=1;whiteSpace=wrap;html=1;" vertex="1" parent="1">
          <mxGeometry x="40" y="1210" width="120" height="60" as="geometry" />
        </mxCell>
        <mxCell id="2r1wk7_mXnwwI7fHC9Ym-43" value="" style="endArrow=classic;html=1;rounded=0;" edge="1" parent="1">
          <mxGeometry width="50" height="50" relative="1" as="geometry">
            <mxPoint x="100" y="1290" as="sourcePoint" />
            <mxPoint x="100" y="1340" as="targetPoint" />
          </mxGeometry>
        </mxCell>
        <mxCell id="2r1wk7_mXnwwI7fHC9Ym-44" value="Update last chat column in chats table where user id is the same as the logged in user and where tablename is the same as the current chat/table, with the timestamp" style="rounded=1;whiteSpace=wrap;html=1;" vertex="1" parent="1">
          <mxGeometry x="40" y="1360" width="120" height="150" as="geometry" />
        </mxCell>
        <mxCell id="2r1wk7_mXnwwI7fHC9Ym-45" value="" style="endArrow=classic;html=1;rounded=0;" edge="1" parent="1">
          <mxGeometry width="50" height="50" relative="1" as="geometry">
            <mxPoint x="175" y="1420" as="sourcePoint" />
            <mxPoint x="240" y="1420" as="targetPoint" />
          </mxGeometry>
        </mxCell>
        <mxCell id="2r1wk7_mXnwwI7fHC9Ym-46" value="chats" style="swimlane;fontStyle=0;childLayout=stackLayout;horizontal=1;startSize=30;horizontalStack=0;resizeParent=1;resizeParentMax=0;resizeLast=0;collapsible=1;marginBottom=0;whiteSpace=wrap;html=1;" vertex="1" parent="1">
          <mxGeometry x="250" y="1360" width="140" height="120" as="geometry" />
        </mxCell>
        <mxCell id="2r1wk7_mXnwwI7fHC9Ym-47" value="last_chat" style="text;strokeColor=none;fillColor=none;align=left;verticalAlign=middle;spacingLeft=4;spacingRight=4;overflow=hidden;points=[[0,0.5],[1,0.5]];portConstraint=eastwest;rotatable=0;whiteSpace=wrap;html=1;" vertex="1" parent="2r1wk7_mXnwwI7fHC9Ym-46">
          <mxGeometry y="30" width="140" height="30" as="geometry" />
        </mxCell>
        <mxCell id="2r1wk7_mXnwwI7fHC9Ym-48" value="user_id" style="text;strokeColor=none;fillColor=none;align=left;verticalAlign=middle;spacingLeft=4;spacingRight=4;overflow=hidden;points=[[0,0.5],[1,0.5]];portConstraint=eastwest;rotatable=0;whiteSpace=wrap;html=1;" vertex="1" parent="2r1wk7_mXnwwI7fHC9Ym-46">
          <mxGeometry y="60" width="140" height="30" as="geometry" />
        </mxCell>
        <mxCell id="2r1wk7_mXnwwI7fHC9Ym-49" value="tablename" style="text;strokeColor=none;fillColor=none;align=left;verticalAlign=middle;spacingLeft=4;spacingRight=4;overflow=hidden;points=[[0,0.5],[1,0.5]];portConstraint=eastwest;rotatable=0;whiteSpace=wrap;html=1;" vertex="1" parent="2r1wk7_mXnwwI7fHC9Ym-46">
          <mxGeometry y="90" width="140" height="30" as="geometry" />
        </mxCell>
        <mxCell id="2r1wk7_mXnwwI7fHC9Ym-50" value="" style="endArrow=classic;html=1;rounded=0;" edge="1" parent="1">
          <mxGeometry width="50" height="50" relative="1" as="geometry">
            <mxPoint x="100" y="1520" as="sourcePoint" />
            <mxPoint x="100" y="1570" as="targetPoint" />
          </mxGeometry>
        </mxCell>
        <mxCell id="2r1wk7_mXnwwI7fHC9Ym-51" value="&lt;div&gt;Get human readable timestamp, formatted like:&lt;/div&gt;&lt;div&gt;&amp;nbsp;YYYY-MM-DD - HH:MM &lt;/div&gt;" style="rounded=1;whiteSpace=wrap;html=1;" vertex="1" parent="1">
          <mxGeometry x="20" y="1580" width="160" height="60" as="geometry" />
        </mxCell>
        <mxCell id="2r1wk7_mXnwwI7fHC9Ym-52" value="Insert user_id, message, timestamp, file (if one is attached), reply (if the message is a reply) and a unix timestamp into the current table" style="rounded=1;whiteSpace=wrap;html=1;" vertex="1" parent="1">
          <mxGeometry x="40" y="1710" width="120" height="130" as="geometry" />
        </mxCell>
        <mxCell id="2r1wk7_mXnwwI7fHC9Ym-53" value="" style="endArrow=classic;html=1;rounded=0;" edge="1" parent="1">
          <mxGeometry width="50" height="50" relative="1" as="geometry">
            <mxPoint x="100" y="1660" as="sourcePoint" />
            <mxPoint x="100" y="1700" as="targetPoint" />
          </mxGeometry>
        </mxCell>
        <mxCell id="2r1wk7_mXnwwI7fHC9Ym-54" value="" style="endArrow=classic;html=1;rounded=0;" edge="1" parent="1">
          <mxGeometry width="50" height="50" relative="1" as="geometry">
            <mxPoint x="180" y="1780" as="sourcePoint" />
            <mxPoint x="240" y="1780" as="targetPoint" />
          </mxGeometry>
        </mxCell>
        <mxCell id="2r1wk7_mXnwwI7fHC9Ym-55" value="Current table (chat)" style="swimlane;fontStyle=0;childLayout=stackLayout;horizontal=1;startSize=30;horizontalStack=0;resizeParent=1;resizeParentMax=0;resizeLast=0;collapsible=1;marginBottom=0;whiteSpace=wrap;html=1;" vertex="1" parent="1">
          <mxGeometry x="260" y="1670" width="140" height="210" as="geometry" />
        </mxCell>
        <mxCell id="2r1wk7_mXnwwI7fHC9Ym-56" value="message_id (auto increment)" style="text;strokeColor=none;fillColor=none;align=left;verticalAlign=middle;spacingLeft=4;spacingRight=4;overflow=hidden;points=[[0,0.5],[1,0.5]];portConstraint=eastwest;rotatable=0;whiteSpace=wrap;html=1;" vertex="1" parent="2r1wk7_mXnwwI7fHC9Ym-55">
          <mxGeometry y="30" width="140" height="30" as="geometry" />
        </mxCell>
        <mxCell id="2r1wk7_mXnwwI7fHC9Ym-57" value="user_id" style="text;strokeColor=none;fillColor=none;align=left;verticalAlign=middle;spacingLeft=4;spacingRight=4;overflow=hidden;points=[[0,0.5],[1,0.5]];portConstraint=eastwest;rotatable=0;whiteSpace=wrap;html=1;" vertex="1" parent="2r1wk7_mXnwwI7fHC9Ym-55">
          <mxGeometry y="60" width="140" height="30" as="geometry" />
        </mxCell>
        <mxCell id="2r1wk7_mXnwwI7fHC9Ym-58" value="message" style="text;strokeColor=none;fillColor=none;align=left;verticalAlign=middle;spacingLeft=4;spacingRight=4;overflow=hidden;points=[[0,0.5],[1,0.5]];portConstraint=eastwest;rotatable=0;whiteSpace=wrap;html=1;" vertex="1" parent="2r1wk7_mXnwwI7fHC9Ym-55">
          <mxGeometry y="90" width="140" height="30" as="geometry" />
        </mxCell>
        <mxCell id="2r1wk7_mXnwwI7fHC9Ym-63" value="file" style="text;strokeColor=none;fillColor=none;align=left;verticalAlign=middle;spacingLeft=4;spacingRight=4;overflow=hidden;points=[[0,0.5],[1,0.5]];portConstraint=eastwest;rotatable=0;whiteSpace=wrap;html=1;" vertex="1" parent="2r1wk7_mXnwwI7fHC9Ym-55">
          <mxGeometry y="120" width="140" height="30" as="geometry" />
        </mxCell>
        <mxCell id="2r1wk7_mXnwwI7fHC9Ym-62" value="reply" style="text;strokeColor=none;fillColor=none;align=left;verticalAlign=middle;spacingLeft=4;spacingRight=4;overflow=hidden;points=[[0,0.5],[1,0.5]];portConstraint=eastwest;rotatable=0;whiteSpace=wrap;html=1;" vertex="1" parent="2r1wk7_mXnwwI7fHC9Ym-55">
          <mxGeometry y="150" width="140" height="30" as="geometry" />
        </mxCell>
        <mxCell id="2r1wk7_mXnwwI7fHC9Ym-61" value="unix_timestamp" style="text;strokeColor=none;fillColor=none;align=left;verticalAlign=middle;spacingLeft=4;spacingRight=4;overflow=hidden;points=[[0,0.5],[1,0.5]];portConstraint=eastwest;rotatable=0;whiteSpace=wrap;html=1;" vertex="1" parent="2r1wk7_mXnwwI7fHC9Ym-55">
          <mxGeometry y="180" width="140" height="30" as="geometry" />
        </mxCell>
      </root>
    </mxGraphModel>
  </diagram>
</mxfile>
